<svg xmlns="http://www.w3.org/2000/svg" width="169.698" height="56" viewBox="0 0 169.698 56">
  <g id="Raggruppa_109" data-name="Raggruppa 109" transform="translate(-302.923 -252.923)">
    <g id="Raggruppa_107" data-name="Raggruppa 107" transform="translate(302.923 252.923)">
      <path id="Tracciato_330" data-name="Tracciato 330" d="M530.344,291.842a1.212,1.212,0,0,0-1.614.26,8.355,8.355,0,0,1-6.818,3.383,9.288,9.288,0,0,1-4.529-1.145V280.912a4.569,4.569,0,0,1,3.8-4.373,7.3,7.3,0,0,1,3.176.364c1.666.625,1.718,1.823,1.2,2.656l-.884,1.717a2.548,2.548,0,0,0-.209,2.291,3.214,3.214,0,0,0,5.83.521,6.165,6.165,0,0,0,.26-4.632c-.989-2.655-4.476-5.1-8.744-5.1a11.6,11.6,0,0,0-11.608,11.66,11.729,11.729,0,0,0,11.712,11.711,11.315,11.315,0,0,0,8.744-4.269A1.279,1.279,0,0,0,530.344,291.842Z" transform="translate(-361.183 -258.946)" fill="#003da5"/>
      <path id="Tracciato_331" data-name="Tracciato 331" d="M481.968,274.426h-.937a12.3,12.3,0,1,0,.937,0Zm.157,21.185h-.157a9.279,9.279,0,0,1-4.528-1.145V280.984a4.484,4.484,0,0,1,3.956-4.321h.572a9.737,9.737,0,0,1,4.686,1.093l.155,13.534A4.568,4.568,0,0,1,482.125,295.611Z" transform="translate(-349.971 -258.967)" fill="#003da5"/>
      <path id="Tracciato_332" data-name="Tracciato 332" d="M450.038,289.452h-3.748V256.713h3.748a1.167,1.167,0,0,0,1.145-1.2,1.155,1.155,0,0,0-1.145-1.146H432.443a1.172,1.172,0,1,0,0,2.343h3.9v19.1H421.931v-19.1h3.695a1.168,1.168,0,0,0,1.146-1.2,1.156,1.156,0,0,0-1.146-1.146h-17.54a1.172,1.172,0,1,0,0,2.343h3.9v32.739h-3.9a1.171,1.171,0,1,0,0,2.342h17.54a1.171,1.171,0,0,0,0-2.342h-3.695v-11.3h14.417v11.3h-3.9a1.171,1.171,0,1,0,0,2.342h17.594a1.171,1.171,0,0,0,0-2.342Z" transform="translate(-332.145 -253.33)" fill="#003da5"/>
      <path id="Tracciato_333" data-name="Tracciato 333" d="M389.781,289.464h-1.508V255.319a1.08,1.08,0,0,0-1.146-1.093H379.58a1.175,1.175,0,0,0-1.093,1.093,1.078,1.078,0,0,0,1.093,1.145h1.51V270.1a7.561,7.561,0,0,0-5.048-1.666,11.738,11.738,0,1,0,0,23.475,7.3,7.3,0,0,0,5.048-1.666v.365a1.09,1.09,0,0,0,1.145,1.145h7.547c.73,0,1.093-.364,1.093-1.145A1.077,1.077,0,0,0,389.781,289.464Zm-8.692-2.811c-.937,2.082-2.6,3.019-5.048,3.019a9.534,9.534,0,0,1-4.737-1.145V274.994a4.533,4.533,0,0,1,4.372-4.32h.365a4.877,4.877,0,0,1,5.048,3.227Z" transform="translate(-320.139 -253.289)" fill="#003da5"/>
      <path id="Tracciato_334" data-name="Tracciato 334" d="M346.177,289.1H341.44l-15.2-35.394a1.315,1.315,0,0,0-1.2-.781,1.337,1.337,0,0,0-1.249.781L308.6,289.1h-4.528a1.145,1.145,0,1,0,0,2.29h10.671a1.145,1.145,0,0,0,0-2.29H311.1l3.591-8.381h12.284l3.591,8.381h-3.54a1.145,1.145,0,0,0,0,2.29h19.155a1.145,1.145,0,0,0,0-2.29Zm-30.5-10.671,5.152-11.972,5.153,11.972Z" transform="translate(-302.923 -252.923)" fill="#003da5"/>
    </g>
    <g id="Raggruppa_108" data-name="Raggruppa 108" transform="translate(342.199 283.353)">
      <path id="Tracciato_335" data-name="Tracciato 335" d="M405.941,319.6c-2.756.81-4.654-2.057-6.143-4.969a28.111,28.111,0,0,1-2.664-8.662,17.5,17.5,0,0,0-1.024-4.248c-.59-1.388-1.464-2.11-2.454-2.036-1.216.091-1.882,1.321-2.368,2.22l-.124.226a26.931,26.931,0,0,0-1.746,3.912c-.3.825-.572,1.694-.835,2.64-.009-.272-.022-.545-.037-.816a22.66,22.66,0,0,0-1.359-7.287,8.96,8.96,0,0,0-.788-1.508l-.05-.077a2.683,2.683,0,0,0-1.019-1.059c-.778-.357-1.687.116-2.432,1.266a12.154,12.154,0,0,0-1.157,2.613c-.076.215-.15.428-.227.636-.452,1.227-.9,2.5-1.357,3.9-.633,1.914-1.219,3.822-1.774,5.667-.077-1.623-.219-3.234-.421-4.809a43.986,43.986,0,0,0-1.553-7.823,3.516,3.516,0,0,0-1.936-2.336,5.221,5.221,0,0,0-2.807-.175c-.563.089-1.119.221-1.658.349-.484.115-.968.23-1.457.314a17.723,17.723,0,0,1-3.369.26,10.309,10.309,0,0,1-6.71-2.405.542.542,0,0,0-.528-.116.566.566,0,0,0-.376.411.515.515,0,0,0,.164.495c3.643,3.3,8.824,2.866,11.588,2.313.3-.06.628-.141.969-.224,1.791-.437,3.821-.933,4.769.682a9.006,9.006,0,0,1,.847,2.779c.047.244.094.483.143.713.277,1.286.513,2.589.7,3.873a59.864,59.864,0,0,1,.62,9.186.531.531,0,0,0,.459.533.538.538,0,0,0,.607-.4c1.329-4.5,2.7-9.15,4.389-13.606l.162-.442a5.926,5.926,0,0,1,1.251-2.331l.056-.055a.88.88,0,0,1,.206-.17,1.672,1.672,0,0,1,.556.022,1.8,1.8,0,0,1,.333.444l.095.152a8.261,8.261,0,0,1,.771,1.507,21.837,21.837,0,0,1,1.19,6.41,34.845,34.845,0,0,1-.42,8.153.552.552,0,0,0,.454.638.511.511,0,0,0,.6-.413,74.843,74.843,0,0,1,1.9-8.183,28.567,28.567,0,0,1,1.6-4.093c.295-.6.61-1.182.935-1.72.407-.672.819-1.269,1.4-1.167,1.132.2,1.559,2.221,1.788,3.306l.022.1c.147.7.259,1.417.366,2.114s.217,1.411.365,2.114a26.821,26.821,0,0,0,3.119,8.067c1.689,2.881,3.526,4.332,5.472,4.332a4.2,4.2,0,0,0,1.189-.177.528.528,0,0,0,.37-.385.567.567,0,0,0-.157-.535A.52.52,0,0,0,405.941,319.6Z" transform="translate(-357.555 -295.25)" fill="#222"/>
      <path id="Tracciato_336" data-name="Tracciato 336" d="M420.115,315.754a.606.606,0,0,0,.615-.624.616.616,0,1,0-1.231,0A.606.606,0,0,0,420.115,315.754Z" transform="translate(-374.966 -300.664)" fill="#222"/>
      <path id="Tracciato_337" data-name="Tracciato 337" d="M431.565,311.763a12.975,12.975,0,0,0,1.282-5.743,18.675,18.675,0,0,0-1-6c-.758-2.234-2.146-3.715-3.808-4.066a3.818,3.818,0,0,0-2.839.5,2.908,2.908,0,0,0-1.281,1.9,6.058,6.058,0,0,0,.513,3.268l.378,1c.331.872.662,1.743.97,2.625a76.236,76.236,0,0,1,2.411,8.191l.176.772a3.3,3.3,0,0,1-2.153.858H426.2a5.528,5.528,0,0,1-1.967-.416,4.7,4.7,0,0,1-3.068-3.445.513.513,0,0,0-.623-.4.544.544,0,0,0-.431.647,5.623,5.623,0,0,0,2.979,3.867,5.781,5.781,0,0,0,4.477.61,4.782,4.782,0,0,0,1.077-.546,15.665,15.665,0,0,0,2.141,5.2.539.539,0,0,0,.446.235l.047,0a.558.558,0,0,0,.459-.313.51.51,0,0,0-.048-.514,15.394,15.394,0,0,1-2.115-5.344l-.005-.019a10.751,10.751,0,0,0,2-2.85Zm-5.424-14.611c1.7-.722,3.339.513,4.139,1.964a13.548,13.548,0,0,1,1.4,5.141c.222,2.128.179,6.035-2.42,9.046-.357-1.484-.772-3.14-1.265-4.764-.648-2.134-1.382-4.272-2.183-6.356l-.055-.142C424.926,299.9,424.334,297.916,426.141,297.152Z" transform="translate(-375.134 -295.423)" fill="#222"/>
      <path id="Tracciato_338" data-name="Tracciato 338" d="M471.383,317.6a.536.536,0,0,0-.374-.055.52.52,0,0,0-.347.266,7.128,7.128,0,0,1-1.709,2.31,3.65,3.65,0,0,0,.269-.718,1.509,1.509,0,0,0-.3-1.5,3.188,3.188,0,0,0-4.61,1.039,1.825,1.825,0,0,0,.163,1.758c.027.043.055.086.086.127-1.835,1.022-4.5.211-6.419-1.121-.177-.122-.354-.27-.535-.42-.7-.58-1.57-1.3-2.676-.8a2.758,2.758,0,0,0-1.439,2.419,2.767,2.767,0,0,1-1-2.047.554.554,0,0,0-.549-.524.529.529,0,0,0-.533.532c-.012,1.221-.356,1.8-1.187,2a8.03,8.03,0,0,1-1.694.152l-.393.009a31.987,31.987,0,0,0-3.6.355l-.3.041a2.823,2.823,0,0,0-.315-2.619,2.835,2.835,0,0,0-4.259-.541,2.939,2.939,0,0,0-.216,2.409,2.347,2.347,0,0,0,1.654,1.676,5.945,5.945,0,0,0,1.818.255,10.955,10.955,0,0,0,1.383-.1c1.152-.148,2.344-.3,3.517-.38.265-.018.537-.022.813-.025a5.683,5.683,0,0,0,2.51-.414,2.164,2.164,0,0,0,.89-.809,3.52,3.52,0,0,0,1.863,1.458.519.519,0,0,0,.5-.095.574.574,0,0,0,.193-.522,2.6,2.6,0,0,1,.431-1.974c.471-.5.946-.417,1.817.314a10.115,10.115,0,0,0,2.691,1.614c1.36.556,3.9,1.257,5.927-.129a4.26,4.26,0,0,0,3.009.061,6.2,6.2,0,0,0,3.145-3.265A.539.539,0,0,0,471.383,317.6Zm-5.119,3.1a1.631,1.631,0,0,1-.467-.192l-.142-.1a.986.986,0,0,1-.377-.82,1.092,1.092,0,0,1,.532-.831,2.854,2.854,0,0,1,1.909-.347c.318.063.4.214.439.322a1.77,1.77,0,0,1-.531,1.461,1.314,1.314,0,0,1-1.152.559Zm-25.7-1.828a1.793,1.793,0,0,1,.949-.247,1.684,1.684,0,0,1,1.753,1.27,1.46,1.46,0,0,1-.112,1.268,1.436,1.436,0,0,1-.373.331.518.518,0,0,1-.078.011,4.527,4.527,0,0,1-1.137-.157,1.521,1.521,0,0,1-1.173-1.614C440.384,319.575,440.362,319.075,440.561,318.878Z" transform="translate(-380.528 -301.454)" fill="#222"/>
    </g>
  </g>
</svg>
