<svg id="Livello_1" data-name="Livello 1" xmlns="http://www.w3.org/2000/svg" viewBox="0 0 500 451"><defs><style>.cls-1{isolation:isolate;}.cls-2{fill:#fff;}</style></defs><title>caption-overlay</title><g class="cls-1"><path class="cls-2" d="M138,14h13.5V84H138Z"/><path class="cls-2" d="M167.5,14H181V72h29.5V84h-43Z"/><path class="cls-2" d="M245.8,65.3c4,4.4,10.1,7.7,16.5,7.7,6,0,10.2-3.7,10.2-8.8,0-9-13-10.1-22.4-15.6-5.5-3.2-9.9-8-9.9-15.9,0-12.5,11.5-19.7,23.1-19.7a32.41,32.41,0,0,1,20.3,6.6l-7,10A18.74,18.74,0,0,0,264.5,25c-5.1,0-10.8,2.2-10.8,7.6,0,11.3,32.3,7.8,32.3,31.4,0,12.4-11.1,21-23.7,21-9.4,0-18.1-3.9-25.3-10.5Z"/><path class="cls-2" d="M305.5,77.8c-5.8-5.2-9-12.6-9-23.3V14H310V55.5c0,6.4,1.7,10.3,4.6,13a18,18,0,0,0,23.8,0c2.9-2.7,4.6-6.6,4.6-13V14h13.5V54.5c0,10.7-3.2,18.1-9,23.3-5.4,4.8-13.1,7.2-21,7.2S310.9,82.6,305.5,77.8Z"/></g><g class="cls-1"><path class="cls-2" d="M97.75,173.9l25.5-41.9h9.5v70h-13.5V163l-16.8,27.5h-9.4L76.25,163v39H62.75V132h9.5Z"/><path class="cls-2" d="M148.75,132h13.5v70h-13.5Z"/><path class="cls-2" d="M180.05,183.3c4,4.4,10.1,7.7,16.5,7.7,6,0,10.2-3.7,10.2-8.8,0-9-13-10.1-22.4-15.6-5.5-3.2-9.9-8-9.9-15.9,0-12.5,11.5-19.7,23.1-19.7a32.41,32.41,0,0,1,20.3,6.6l-7,10a18.74,18.74,0,0,0-12.1-4.6c-5.1,0-10.8,2.2-10.8,7.6,0,11.3,32.3,7.8,32.3,31.4,0,12.4-11.1,21-23.7,21-9.4,0-18.1-3.9-25.3-10.5Z"/><path class="cls-2" d="M239.75,195.8c-5.8-5.2-9-12.6-9-23.3V132h13.5v41.5c0,6.4,1.7,10.3,4.6,13a18,18,0,0,0,23.8,0c2.9-2.7,4.6-6.6,4.6-13V132h13.5v40.5c0,10.7-3.2,18.1-9,23.3-5.4,4.8-13.1,7.2-21,7.2S245.15,200.6,239.75,195.8Z"/><path class="cls-2" d="M319.75,171v31h-13.5V132h25.5c7.2,0,11.8,2,15.3,5.2a19.59,19.59,0,0,1,0,28.6,18,18,0,0,1-7,4.1l26.2,32.1h-16.7l-24.9-31ZM331,159c3.9,0,5.6-.8,6.8-2.1a8.16,8.16,0,0,0,0-10.7c-1.2-1.3-2.9-2.2-6.8-2.2h-11.2v15Z"/><path class="cls-2" d="M369.75,202l30-70h9.5l30,70h-14.1l-6.6-15.5h-28.1l-6.6,15.5Zm25.8-27.5h17.8l-8.9-20.7Z"/></g><g class="cls-1"><path class="cls-2" d="M60.75,320l30-70h9.5l30,70h-14.1l-6.6-15.5H81.45L74.85,320Zm25.8-27.5h17.8l-8.9-20.7Z"/><path class="cls-2" d="M160.25,250c11.1,0,18.4,2.4,24.1,6.6a36,36,0,0,1,0,56.8c-5.7,4.2-13,6.6-24.1,6.6h-22V250Zm19.4,19.8c-3.9-4.9-9.6-7.8-17.9-7.8h-10v46h10c8.3,0,14-2.9,17.9-7.8a25.2,25.2,0,0,0,0-30.4Z"/><path class="cls-2" d="M257.75,288.5h-35V320h-13.5V250h13.5v26.5h35V250h13.5v70h-13.5Z"/><path class="cls-2" d="M318.75,249c21.6,0,36.5,16.1,36.5,36s-14.9,36-36.5,36-36.5-16.1-36.5-36S297.15,249,318.75,249Zm0,60c13.2,0,23-10.8,23-24s-9.8-24-23-24-23,10.8-23,24S305.55,309,318.75,309Z"/><path class="cls-2" d="M378.25,285a23.55,23.55,0,0,0,23.9,24,24.48,24.48,0,0,0,19.8-9.7l9.3,8.3c-6.2,7.9-16.6,13.4-29.4,13.4-21.8,0-37.1-15.9-37.1-36s15.1-36,36.9-36a36.38,36.38,0,0,1,25.6,10l-8.7,9.2a24,24,0,0,0-17-7.2C388.25,261,378.25,271.7,378.25,285Z"/></g><g class="cls-1"><path class="cls-2" d="M109.75,409.5V438H96.25V368h26.3c9,0,14.3,2.2,18.2,6.3a21.86,21.86,0,0,1,0,29c-3.8,4-9.2,6.2-18.2,6.2Zm12.2-12c4.6,0,6.9-1.1,8.5-2.8a8.4,8.4,0,0,0,2.3-5.9,8.64,8.64,0,0,0-2.3-6c-1.6-1.7-3.9-2.8-8.5-2.8h-12.2v17.5Z"/><path class="cls-2" d="M169.75,380v14.5h21.5v12h-21.5V426h29.5v12h-43V368h42v12Z"/><path class="cls-2" d="M224.75,407v31h-13.5V368h25.5c7.2,0,11.8,2,15.3,5.2a19.59,19.59,0,0,1,0,28.6,18,18,0,0,1-7,4.1l26.2,32.1h-16.7l-24.9-31ZM236,395c3.9,0,5.6-.8,6.8-2.1a8.16,8.16,0,0,0,0-10.7c-1.2-1.3-2.9-2.2-6.8-2.2h-11.2v15Z"/><path class="cls-2" d="M348.25,368v12h-18.5v58h-13.5V380h-18.5V368Z"/><path class="cls-2" d="M372.25,380v14.5h21.5v12h-21.5V426h29.5v12h-43V368h42v12Z"/></g></svg>