<svg xmlns="http://www.w3.org/2000/svg" width="460.353" height="461.441" viewBox="0 0 460.353 461.441">
  <g id="Raggruppa_102" data-name="Raggruppa 102" transform="translate(-276.292 -237.293)">
    <path id="Tracciato_283" data-name="Tracciato 283" d="M276.292,274.4l.176-6.734,31.423.812-.175,6.741Z" transform="translate(0 191.715)" fill="#0846af"/>
    <path id="Tracciato_284" data-name="Tracciato 284" d="M307.556,285.435l-31.145-4.248.914-6.668,25.136,3.429,1.974-14.462,6,.826Z" transform="translate(0.751 165.315)" fill="#0846af"/>
    <path id="Tracciato_285" data-name="Tracciato 285" d="M287.6,261.009l2.157-5.564,29.3,11.376-2.435,6.273-19.55-7.582,8.357,14.074-15.587,4.789,19.469,7.56-2.442,6.28-29.3-11.376,2.2-5.659,16.662-5.081Z" transform="translate(8.091 114.561)" fill="#0846af"/>
    <path id="Tracciato_286" data-name="Tracciato 286" d="M280.184,258.834l3.341-5.849,27.293,15.595-3.341,5.849Z" transform="translate(24.563 99.036)" fill="#0846af"/>
    <path id="Tracciato_287" data-name="Tracciato 287" d="M288.463,279.035a15.749,15.749,0,0,1-4.226-4.913,16.275,16.275,0,0,1-1.923-6.039,17,17,0,0,1,.526-6.434,18.134,18.134,0,0,1,8.269-10.689,16.922,16.922,0,0,1,6.1-2.12,16.185,16.185,0,0,1,6.317.344,16.176,16.176,0,0,1,10.053,7.779,16.087,16.087,0,0,1,1.916,6.032,17.118,17.118,0,0,1-.519,6.434,17.309,17.309,0,0,1-3.107,6.141,17.382,17.382,0,0,1-11.266,6.668,16.186,16.186,0,0,1-6.317-.344A15.743,15.743,0,0,1,288.463,279.035Zm4.262-5.505a10.589,10.589,0,0,0,3.707,1.879,10.336,10.336,0,0,0,3.912.3,10.083,10.083,0,0,0,8.766-11.325,10.213,10.213,0,0,0-1.272-3.707,10.484,10.484,0,0,0-2.749-3.122,10.341,10.341,0,0,0-3.714-1.886,10.179,10.179,0,0,0-3.911-.3,9.986,9.986,0,0,0-6.726,3.846,10.119,10.119,0,0,0-1.8,3.6,9.983,9.983,0,0,0-.242,3.882,10.265,10.265,0,0,0,1.272,3.707A10.5,10.5,0,0,0,292.725,273.529Z" transform="translate(37.347 71.838)" fill="#0846af"/>
    <path id="Tracciato_288" data-name="Tracciato 288" d="M309.633,262.255a2.6,2.6,0,0,0-2.31-1,11.317,11.317,0,0,0-3.1.753c-1.14.439-2.347.921-3.633,1.448a16.2,16.2,0,0,1-3.919,1.111,9.022,9.022,0,0,1-3.948-.271,7.859,7.859,0,0,1-3.751-2.756,8.535,8.535,0,0,1-1.82-6.872,10.78,10.78,0,0,1,1.411-3.758,13.433,13.433,0,0,1,3.049-3.473,13.767,13.767,0,0,1,3.926-2.354,16.445,16.445,0,0,1,3.444-.921,13.546,13.546,0,0,1,3.312,0l-.4,5.871a9.338,9.338,0,0,0-2.069-.044,11.1,11.1,0,0,0-2.011.461,6.686,6.686,0,0,0-2.142,1.214,4.509,4.509,0,0,0-1.784,2.778,3.062,3.062,0,0,0,.636,2.53,2.558,2.558,0,0,0,2.325,1.024,11.4,11.4,0,0,0,3.085-.775c1.133-.424,2.347-.914,3.634-1.448a16.508,16.508,0,0,1,3.919-1.1,8.956,8.956,0,0,1,3.955.278,8.011,8.011,0,0,1,3.744,2.742,9.74,9.74,0,0,1,1.879,3.517,8.678,8.678,0,0,1,.2,3.882,11.152,11.152,0,0,1-1.55,3.97,17.3,17.3,0,0,1-7.933,6.514,16.845,16.845,0,0,1-3.992.987,15.607,15.607,0,0,1-3.977-.1l.556-5.7a9.655,9.655,0,0,0,2.574.095,12.258,12.258,0,0,0,2.515-.585,8.914,8.914,0,0,0,2.771-1.623,5.607,5.607,0,0,0,2.237-3.356A3.725,3.725,0,0,0,309.633,262.255Z" transform="translate(67.743 42.697)" fill="#0846af"/>
    <path id="Tracciato_289" data-name="Tracciato 289" d="M314.983,269.641a6.682,6.682,0,0,0,2.047-1.835,6.908,6.908,0,0,0,1.141-2.413,7.343,7.343,0,0,0-.826-5.513l-9.168-15.7,5.82-3.392,9.212,15.777a13.049,13.049,0,0,1,1.733,5.015,12.83,12.83,0,0,1-.373,5.067,13.421,13.421,0,0,1-2.332,4.6,14.4,14.4,0,0,1-4.2,3.619,14.2,14.2,0,0,1-5.227,1.879,13.333,13.333,0,0,1-5.147-.227,12.737,12.737,0,0,1-4.591-2.164,12.936,12.936,0,0,1-3.524-3.985l-9.212-15.777,5.82-3.392,9.168,15.7a7.343,7.343,0,0,0,1.945,2.215,7.193,7.193,0,0,0,2.442,1.206,6.962,6.962,0,0,0,2.669.2A6.755,6.755,0,0,0,314.983,269.641Z" transform="translate(88.64 22.078)" fill="#0846af"/>
    <path id="Tracciato_290" data-name="Tracciato 290" d="M323.7,239.627l5.754-1.616,8.518,30.261-6.485,1.82-5.681-20.186-6.236,15.149L306.38,255.47l5.651,20.1-6.478,1.828-8.517-30.261,5.834-1.645,14.081,10.272Z" transform="translate(130.918 4.533)" fill="#0846af"/>
    <path id="Tracciato_291" data-name="Tracciato 291" d="M303.374,238.494l6.682-.841,3.9,31.189-6.682.833Z" transform="translate(170.918 2.273)" fill="#0846af"/>
    <path id="Tracciato_292" data-name="Tracciato 292" d="M322.25,260.142a2.582,2.582,0,0,0-1.17-2.23,11.176,11.176,0,0,0-2.888-1.36c-1.163-.38-2.405-.76-3.743-1.141a16.943,16.943,0,0,1-3.743-1.6,9.11,9.11,0,0,1-2.91-2.683,7.914,7.914,0,0,1-1.2-4.5,8.571,8.571,0,0,1,2.888-6.5,10.89,10.89,0,0,1,3.458-2.047,13.471,13.471,0,0,1,4.548-.79,13.779,13.779,0,0,1,4.54.621,16.067,16.067,0,0,1,3.254,1.44,12.722,12.722,0,0,1,2.581,2.084l-3.985,4.314a9.512,9.512,0,0,0-1.594-1.331,10.151,10.151,0,0,0-1.85-.9,6.712,6.712,0,0,0-2.427-.4,4.535,4.535,0,0,0-3.129,1.053,3.057,3.057,0,0,0-1.1,2.369,2.584,2.584,0,0,0,1.17,2.252,11.684,11.684,0,0,0,2.888,1.338c1.163.373,2.405.753,3.743,1.148a16.268,16.268,0,0,1,3.743,1.594,8.944,8.944,0,0,1,2.91,2.705,7.934,7.934,0,0,1,1.2,4.482,9.728,9.728,0,0,1-.739,3.9,8.641,8.641,0,0,1-2.281,3.151,10.949,10.949,0,0,1-3.7,2.128,17.27,17.27,0,0,1-10.258.11,17.1,17.1,0,0,1-3.729-1.733,15.011,15.011,0,0,1-3.034-2.566l3.992-4.094a9.348,9.348,0,0,0,1.952,1.682,10.77,10.77,0,0,0,2.325,1.118,8.842,8.842,0,0,0,3.166.483,5.637,5.637,0,0,0,3.853-1.214A3.719,3.719,0,0,0,322.25,260.142Z" transform="translate(185.585 0)" fill="#0846af"/>
    <path id="Tracciato_293" data-name="Tracciato 293" d="M322.8,264.715a6.664,6.664,0,0,0,2.749-.139,7.029,7.029,0,0,0,2.4-1.162,7.273,7.273,0,0,0,2.815-4.8l2.72-17.985,6.66,1.009-2.734,18.059a12.948,12.948,0,0,1-1.8,5.008,12.817,12.817,0,0,1-3.466,3.707,13.339,13.339,0,0,1-4.7,2.12,15.2,15.2,0,0,1-10.791-1.638,13.377,13.377,0,0,1-3.868-3.407,12.739,12.739,0,0,1-2.215-4.562,12.908,12.908,0,0,1-.241-5.315l2.727-18.066,6.661,1L317,256.526a7.338,7.338,0,0,0,.117,2.946,7.474,7.474,0,0,0,1.148,2.478,6.93,6.93,0,0,0,1.952,1.82A6.762,6.762,0,0,0,322.8,264.715Z" transform="translate(213.747 1.554)" fill="#0846af"/>
    <path id="Tracciato_294" data-name="Tracciato 294" d="M324.858,238.585l13.182,4.453a11.41,11.41,0,0,1,3.845,2.15,10.148,10.148,0,0,1,3.063,11.084,9.416,9.416,0,0,1-2.23,3.794,11.755,11.755,0,0,1-2.734,2.062,9.331,9.331,0,0,1-3.3,1.067l2.588,13.423-6.814-2.288-2.223-12.37-5.527-1.864L321.18,270.52l-6.383-2.157Zm13.708,15.529a4.077,4.077,0,0,0-2.676-5.4l-6.595-2.23-2.654,7.867,6.587,2.23a4.218,4.218,0,0,0,3.29-.117A3.886,3.886,0,0,0,338.567,254.114Z" transform="translate(243.017 8.155)" fill="#0846af"/>
    <path id="Tracciato_295" data-name="Tracciato 295" d="M330.8,260.954l-5.886,5.242-6.324-3.407,25.779-21.816,6.324,3.407-4.036,33.529-6.324-3.407,1.141-7.8Zm13.007-11.361-8.262,7.282,6.719,3.619Z" transform="translate(266.948 23.226)" fill="#0846af"/>
    <path id="Tracciato_296" data-name="Tracciato 296" d="M337.426,259.921l-12.509-10.236,3.414-4.167,12.5,10.236Z" transform="translate(306.879 51.91)" fill="#0846af"/>
    <g id="Raggruppa_91" data-name="Raggruppa 91" transform="translate(650.235 311.883)">
      <g id="Raggruppa_85" data-name="Raggruppa 85">
        <path id="Tracciato_297" data-name="Tracciato 297" d="M348.883,294.454l-4.657-5.834,15.865-12.648-15.785.132,3.582-15.31L332.1,273.376l-4.657-5.834.285-.227,24.865-19.82,4.123,5.176-.044.168-3.89,16.516,17.2-.037,4.058,5.1-.285.226Zm-3.626-5.717,3.736,4.686L373,274.3l-3.378-4.248-17.773.037,4.065-17.247-3.436-4.314-24.01,19.133,3.736,4.686,16.867-13.438-.234,1.031-3.6,15.419,16.969-.124-.826.658Z" transform="translate(-327.439 -247.495)" fill="#0846af"/>
      </g>
      <g id="Raggruppa_86" data-name="Raggruppa 86" transform="translate(25.399 38.376)">
        <path id="Tracciato_298" data-name="Tracciato 298" d="M334.656,275.335l-.175-.314-3.568-6.149.314-.175,27.512-15.953.183.314,3.561,6.149-.315.175Zm-2.749-6.193,3.02,5.191,26.554-15.4-3.012-5.191Z" transform="translate(-330.913 -252.744)" fill="#0846af"/>
      </g>
      <g id="Raggruppa_87" data-name="Raggruppa 87" transform="translate(33.397 55.689)">
        <path id="Tracciato_299" data-name="Tracciato 299" d="M340.883,288.231l-.146-.329-8.73-19.857.329-.154,29.113-12.78.146.329,2.866,6.5-.336.146-22.9,10.053L347.1,285.5l-.329.154Zm-7.918-19.82,8.291,18.863,4.884-2.135-5.871-13.372.329-.147,22.891-10.053-2.413-5.5Z" transform="translate(-332.007 -255.112)" fill="#0846af"/>
      </g>
      <g id="Raggruppa_88" data-name="Raggruppa 88" transform="translate(43.143 90.395)">
        <path id="Tracciato_300" data-name="Tracciato 300" d="M341.748,291.736l-.146-.526-1.894-7.2.219-.146,6.258-4.343-2.953-11.23-7.845-.709-.073-.248-1.974-7.472.541.066,33.792,3.963.058.241,1.894,7.187-.2.139Zm-1.192-7.414,1.616,6.185L368.8,271.016l-1.711-6.456-32.761-3.846,1.63,6.178,7.845.716.073.249,3.151,11.976-.212.139Zm10.908-7.706-2.215-8.393,12.466,1.2Zm-1.243-7.567,1.682,6.368,7.772-5.454Z" transform="translate(-333.34 -259.859)" fill="#0846af"/>
      </g>
      <g id="Raggruppa_89" data-name="Raggruppa 89" transform="translate(52.114 124.297)">
        <path id="Tracciato_301" data-name="Tracciato 301" d="M336.8,295.685l-.5-6.353.139-.117,17.934-16.275-19.229,1.484-.578-7.435,32.067-2.493.5,6.353-.139.124-17.927,16.267,19.221-1.484.578,7.443Zm.256-6.054.409,5.271,30.612-2.376-.468-5.988L347,288.14l19.382-17.591-.417-5.271-30.612,2.376.468,5.988,20.625-1.6Z" transform="translate(-334.567 -264.496)" fill="#0846af"/>
      </g>
      <g id="Raggruppa_90" data-name="Raggruppa 90" transform="translate(52.353 163.606)">
        <path id="Tracciato_302" data-name="Tracciato 302" d="M351.3,304.728a17.125,17.125,0,0,1-1.923-.11,16.161,16.161,0,0,1-6.309-2.076,16.719,16.719,0,0,1-4.869-4.255,17.628,17.628,0,0,1-2.939-5.908,17.938,17.938,0,0,1-.534-7,17.726,17.726,0,0,1,2.113-6.7,17.5,17.5,0,0,1,4.211-5.074,16.529,16.529,0,0,1,12.327-3.626h0a16.3,16.3,0,0,1,6.3,2.084,16.464,16.464,0,0,1,4.869,4.255,17.78,17.78,0,0,1,3.466,12.9,17.692,17.692,0,0,1-2.113,6.7A17.363,17.363,0,0,1,361.689,301a16.567,16.567,0,0,1-5.7,3.034A16.058,16.058,0,0,1,351.3,304.728Zm.139-34.129a15.249,15.249,0,0,0-4.46.665,15.7,15.7,0,0,0-5.476,2.91,16.666,16.666,0,0,0-4.021,4.862,16.873,16.873,0,0,0-2.032,6.434,17.35,17.35,0,0,0,.512,6.712,16.923,16.923,0,0,0,2.822,5.659,15.708,15.708,0,0,0,4.657,4.072,15.765,15.765,0,0,0,12.334,1.418,15.868,15.868,0,0,0,5.462-2.9,17.026,17.026,0,0,0,6.054-11.3,16.975,16.975,0,0,0-3.327-12.378,15.831,15.831,0,0,0-4.657-4.065,15.315,15.315,0,0,0-6.017-1.981A15.786,15.786,0,0,0,351.439,270.6Zm.1,27.176a12.608,12.608,0,0,1-1.374-.08,10.883,10.883,0,0,1-4.1-1.287,10.586,10.586,0,0,1-3.114-2.617,10.194,10.194,0,0,1-1.857-3.553,10.455,10.455,0,0,1-.344-4.16,10.342,10.342,0,0,1,7.531-8.854,11.03,11.03,0,0,1,4.292-.321h0a10.793,10.793,0,0,1,4.109,1.294,10.426,10.426,0,0,1,3.107,2.61,10.439,10.439,0,0,1-1.7,14.739,10.427,10.427,0,0,1-3.626,1.835A10.693,10.693,0,0,1,351.541,297.775Zm-.336-20.223a10.181,10.181,0,0,0-2.72.366,9.7,9.7,0,0,0-3.378,1.711,9.833,9.833,0,0,0-3.312,10.4,9.25,9.25,0,0,0,1.725,3.312,9.7,9.7,0,0,0,2.9,2.427,10.106,10.106,0,0,0,3.838,1.206,10.4,10.4,0,0,0,4.006-.293,9.777,9.777,0,0,0,5.827-4.533,10.006,10.006,0,0,0,.87-7.567,9.683,9.683,0,0,0-1.74-3.319,9.8,9.8,0,0,0-2.9-2.427,10.186,10.186,0,0,0-3.839-1.206h0A12.739,12.739,0,0,0,351.205,277.552Z" transform="translate(-334.6 -269.873)" fill="#0846af"/>
      </g>
    </g>
    <path id="Tracciato_303" data-name="Tracciato 303" d="M334.469,292.21l5.147-15.324,5.1,1.711-5.147,15.332Z" transform="translate(367.163 249.878)" fill="#0846af"/>
    <path id="Tracciato_304" data-name="Tracciato 304" d="M335.849,304.314l-5.293-2.961,11.537-20.566L369.5,296.163l-11.31,20.171-5.286-2.968,8.013-14.293L355.436,296l-6.258,11.157-5.286-2.968,6.258-11.157-6.068-3.4Z" transform="translate(342.468 274.498)" fill="#0846af"/>
    <path id="Tracciato_305" data-name="Tracciato 305" d="M336.846,300.571a2.6,2.6,0,0,0,2.471.468,11.541,11.541,0,0,0,2.866-1.418c1.009-.673,2.084-1.418,3.217-2.223a16.879,16.879,0,0,1,3.582-1.937,8.872,8.872,0,0,1,3.9-.6,7.784,7.784,0,0,1,4.27,1.857,8.267,8.267,0,0,1,2.318,2.756,8.524,8.524,0,0,1,.98,3.539,10.823,10.823,0,0,1-.548,3.977,13.546,13.546,0,0,1-2.208,4.057,13.751,13.751,0,0,1-3.312,3.166,15.525,15.525,0,0,1-3.151,1.652A12.646,12.646,0,0,1,348,316.6l-.892-5.805a9.079,9.079,0,0,0,2.025-.424,10.761,10.761,0,0,0,1.857-.885,6.634,6.634,0,0,0,1.82-1.652,4.594,4.594,0,0,0,1.133-3.107,3.094,3.094,0,0,0-1.184-2.332,2.565,2.565,0,0,0-2.493-.483,11.491,11.491,0,0,0-2.837,1.433q-1.525,1.009-3.232,2.215a16.65,16.65,0,0,1-3.575,1.938,8.833,8.833,0,0,1-3.926.6,7.938,7.938,0,0,1-4.248-1.843,9.523,9.523,0,0,1-2.6-3.02,8.678,8.678,0,0,1-1.053-3.743,11.224,11.224,0,0,1,.629-4.219,17.408,17.408,0,0,1,6.31-8.093,16.186,16.186,0,0,1,3.663-1.843,15.042,15.042,0,0,1,3.9-.782l.724,5.666a9.351,9.351,0,0,0-2.537.483,11.542,11.542,0,0,0-2.325,1.126,8.92,8.92,0,0,0-2.34,2.186,5.658,5.658,0,0,0-1.448,3.765A3.73,3.73,0,0,0,336.846,300.571Z" transform="translate(331.213 298.259)" fill="#0846af"/>
    <path id="Tracciato_306" data-name="Tracciato 306" d="M342.032,321.309l-4.248-4.321,6.4-6.287-17.8-18.088,4.8-4.723,17.788,18.088,6.4-6.3L359.638,304Z" transform="translate(316.201 319.326)" fill="#0846af"/>
    <path id="Tracciato_307" data-name="Tracciato 307" d="M331.077,290.814a3.205,3.205,0,0,1,.709,2.478,3.728,3.728,0,0,1-3.933,3.261,3.176,3.176,0,0,1-2.3-1.148,3.218,3.218,0,0,1-.716-2.478,3.742,3.742,0,0,1,3.941-3.268A3.223,3.223,0,0,1,331.077,290.814Z" transform="translate(306.218 330.41)" fill="#0846af"/>
    <path id="Tracciato_308" data-name="Tracciato 308" d="M339.184,291.423a15.742,15.742,0,0,1,2.244,5.959,16.1,16.1,0,0,1-.132,5.227,18.981,18.981,0,0,1-1.5,4.548c-.673,1.411-1.287,2.742-1.828,3.992a16.981,16.981,0,0,0-1.141,3.531,4.367,4.367,0,0,0,.57,3.151,3.866,3.866,0,0,0,2.508,1.967,4.72,4.72,0,0,0,3.422-.789,4.294,4.294,0,0,0,1.733-1.74,6.206,6.206,0,0,0,.636-1.915,5.792,5.792,0,0,0-.073-2.15l6.2-.563a10.64,10.64,0,0,1-.007,4.3,14.772,14.772,0,0,1-.57,1.9,9.845,9.845,0,0,1-1.016,2.018,10.872,10.872,0,0,1-1.645,1.974,13.007,13.007,0,0,1-2.427,1.806,12.035,12.035,0,0,1-4.241,1.609,10.382,10.382,0,0,1-4.094-.066,9.789,9.789,0,0,1-3.568-1.616,9.677,9.677,0,0,1-2.72-2.975,8.843,8.843,0,0,1-1.28-3.6,10.838,10.838,0,0,1,.2-3.466,18.322,18.322,0,0,1,1.126-3.378c.483-1.111.987-2.223,1.5-3.327s.95-2.215,1.345-3.312a11.312,11.312,0,0,0,.644-3.312L323.5,308.085l-3.217-5.4Z" transform="translate(277.646 341.623)" fill="#0846af"/>
    <path id="Tracciato_309" data-name="Tracciato 309" d="M318.311,315.059a20.058,20.058,0,0,1-1.543-6.734,16.109,16.109,0,0,1,.79-5.885,12.706,12.706,0,0,1,2.756-4.628,12.034,12.034,0,0,1,9.527-3.86,12.95,12.95,0,0,1,5.2,1.4,16.164,16.164,0,0,1,4.665,3.677,21.727,21.727,0,0,1,5.125,12.656,15.992,15.992,0,0,1-.79,5.893,12.976,12.976,0,0,1-2.749,4.628,12.143,12.143,0,0,1-4.343,2.99,11.983,11.983,0,0,1-5.191.87,12.844,12.844,0,0,1-5.2-1.411,15.943,15.943,0,0,1-4.665-3.685A20.193,20.193,0,0,1,318.311,315.059Zm18.731-7.575a16,16,0,0,0-2.252-4.006,10.311,10.311,0,0,0-2.632-2.427,6.3,6.3,0,0,0-2.712-.965,5.356,5.356,0,0,0-2.522.351,5.291,5.291,0,0,0-2.054,1.506,6.256,6.256,0,0,0-1.279,2.581,10.348,10.348,0,0,0-.2,3.568,18.1,18.1,0,0,0,3.422,8.452,10.4,10.4,0,0,0,2.632,2.42,6.2,6.2,0,0,0,2.712.958,5.306,5.306,0,0,0,2.53-.336,5.437,5.437,0,0,0,2.047-1.513,6.348,6.348,0,0,0,1.28-2.581,10.348,10.348,0,0,0,.2-3.568A15.843,15.843,0,0,0,337.042,307.484Z" transform="translate(255.362 357.453)" fill="#0846af"/>
    <path id="Tracciato_310" data-name="Tracciato 310" d="M333.941,294.942a15.761,15.761,0,0,1,.351,6.354,16.346,16.346,0,0,1-1.7,4.95,19.191,19.191,0,0,1-2.793,3.882c-1.068,1.148-2.047,2.23-2.946,3.261a16.857,16.857,0,0,0-2.142,3.02,4.327,4.327,0,0,0-.4,3.188,3.861,3.861,0,0,0,1.8,2.617,4.693,4.693,0,0,0,3.5.285,4.4,4.4,0,0,0,2.179-1.141,6.338,6.338,0,0,0,1.177-1.638,5.68,5.68,0,0,0,.57-2.076l6.083,1.331a10.446,10.446,0,0,1-1.294,4.094,14.085,14.085,0,0,1-1.111,1.638,10.241,10.241,0,0,1-1.579,1.623,11.159,11.159,0,0,1-2.157,1.389,13.5,13.5,0,0,1-2.859.994,12.462,12.462,0,0,1-4.526.27,10.541,10.541,0,0,1-3.882-1.294,9.807,9.807,0,0,1-2.924-2.617,9.594,9.594,0,0,1-1.7-3.655,8.865,8.865,0,0,1-.146-3.816,10.742,10.742,0,0,1,1.243-3.246,18.151,18.151,0,0,1,2.084-2.9c.8-.907,1.609-1.82,2.427-2.72s1.572-1.821,2.274-2.749a10.857,10.857,0,0,0,1.609-2.961l-13.109,3.093L312.527,300Z" transform="translate(228.684 363.832)" fill="#0846af"/>
    <path id="Tracciato_311" data-name="Tracciato 311" d="M308.272,313.376a20.127,20.127,0,0,1,.556-6.9,16.176,16.176,0,0,1,2.53-5.374,12.951,12.951,0,0,1,4.014-3.59,12.122,12.122,0,0,1,5.037-1.542,11.84,11.84,0,0,1,5.213.738,12.677,12.677,0,0,1,4.533,2.91,15.871,15.871,0,0,1,3.341,4.913,21.79,21.79,0,0,1,1.075,13.606,16.139,16.139,0,0,1-2.522,5.381,12.871,12.871,0,0,1-4.021,3.583,11.781,11.781,0,0,1-5.03,1.543,11.994,11.994,0,0,1-5.22-.731,13,13,0,0,1-4.526-2.9,16.086,16.086,0,0,1-3.341-4.92A19.978,19.978,0,0,1,308.272,313.376Zm20.142-1.594a16.027,16.027,0,0,0-.943-4.5,10.5,10.5,0,0,0-1.777-3.1,6.283,6.283,0,0,0-2.3-1.733,5.356,5.356,0,0,0-2.515-.431,5.223,5.223,0,0,0-2.413.819,6.4,6.4,0,0,0-2,2.076,10.349,10.349,0,0,0-1.265,3.341,18,18,0,0,0,.716,9.088,10.416,10.416,0,0,0,1.777,3.1,6.225,6.225,0,0,0,2.3,1.733,5.151,5.151,0,0,0,2.508.431,5.28,5.28,0,0,0,2.413-.819,6.3,6.3,0,0,0,2-2.069,10.455,10.455,0,0,0,1.272-3.349A15.893,15.893,0,0,0,328.414,311.782Z" transform="translate(201.347 370.051)" fill="#0846af"/>
  </g>
</svg>
